<svg xmlns="http://www.w3.org/2000/svg" viewBox="0 0 900 900" width="900" height="900" role="img">
<defs>
<linearGradient id="g-ensalada-detalle" x1="0" y1="0" x2="0.85" y2="1">
<stop offset="0" stop-color="#E7F3E2"/><stop offset="1" stop-color="#C9E4C2"/>
</linearGradient>
<radialGradient id="g-ensalada-detalle-h" cx="0.28" cy="0.22" r="0.7">
<stop offset="0" stop-color="#FFFFFF" stop-opacity="0.85"/>
<stop offset="1" stop-color="#FFFFFF" stop-opacity="0"/>
</radialGradient>
</defs>
<rect width="900" height="900" fill="url(#g-ensalada-detalle)"/>
<circle cx="720" cy="198" r="270" fill="#5E9E6E" opacity="0.14"/>
<circle cx="162" cy="558" r="180" fill="#5E9E6E" opacity="0.09"/>
<rect width="900" height="900" fill="url(#g-ensalada-detalle-h)"/>
<path d="M 216.0 702.0 a 234.0 201.2 0 0 1 468.0 0 l 0 93.6 a 234.0 93.6 0 0 1 -468.0 0 Z" fill="#5E9E6E" opacity="0.30"/><path d="M 281.5 533.5 a 168.5 144.9 0 0 1 337.0 0 l 0 67.4 a 168.5 67.4 0 0 1 -337.0 0 Z" fill="#5E9E6E" opacity="0.24"/><path d="M 342.4 407.2 a 107.6 92.6 0 0 1 215.3 0 l 0 43.1 a 107.6 43.1 0 0 1 -215.3 0 Z" fill="#5E9E6E" opacity="0.18"/><path d="M 379.8 368.6 Q 450.0 235.2 520.2 368.6 Z" fill="#5E9E6E" opacity="0.12"/>
<rect x="365.3" y="653.2" width="24.8" height="8.4" rx="4.2" fill="#2E6BE6" opacity="0.45" transform="rotate(149.1 365.3 653.2)"/><rect x="715.2" y="798.7" width="24.9" height="8.5" rx="4.2" fill="#5E9E6E" opacity="0.45" transform="rotate(48.3 715.2 798.7)"/><rect x="136.9" y="464.3" width="19.4" height="6.6" rx="3.3" fill="#F2A33C" opacity="0.45" transform="rotate(45.4 136.9 464.3)"/><rect x="424.8" y="295.7" width="24.0" height="8.2" rx="4.1" fill="#5E9E6E" opacity="0.45" transform="rotate(41.7 424.8 295.7)"/><rect x="312.0" y="493.3" width="24.4" height="8.3" rx="4.1" fill="#5E9E6E" opacity="0.45" transform="rotate(148.4 312.0 493.3)"/><rect x="70.1" y="285.1" width="16.9" height="5.7" rx="2.9" fill="#7B3F6B" opacity="0.45" transform="rotate(59.0 70.1 285.1)"/><rect x="731.1" y="633.5" width="22.0" height="7.5" rx="3.7" fill="#7B3F6B" opacity="0.45" transform="rotate(102.4 731.1 633.5)"/><rect x="559.3" y="401.3" width="23.4" height="8.0" rx="4.0" fill="#F2A33C" opacity="0.45" transform="rotate(152.6 559.3 401.3)"/><rect x="731.6" y="401.0" width="24.6" height="8.4" rx="4.2" fill="#F2A33C" opacity="0.45" transform="rotate(16.7 731.6 401.0)"/><rect x="517.3" y="601.2" width="22.2" height="7.5" rx="3.8" fill="#F2A33C" opacity="0.45" transform="rotate(26.8 517.3 601.2)"/><rect x="323.3" y="725.5" width="22.8" height="7.7" rx="3.9" fill="#7B3F6B" opacity="0.45" transform="rotate(74.6 323.3 725.5)"/><rect x="91.8" y="811.2" width="21.6" height="7.3" rx="3.7" fill="#F2A33C" opacity="0.45" transform="rotate(27.3 91.8 811.2)"/><rect x="829.7" y="824.2" width="16.4" height="5.6" rx="2.8" fill="#2E6BE6" opacity="0.45" transform="rotate(0.2 829.7 824.2)"/><rect x="621.1" y="696.3" width="22.2" height="7.6" rx="3.8" fill="#2E6BE6" opacity="0.45" transform="rotate(14.8 621.1 696.3)"/>
<g opacity="0.92"><rect x="197.6" y="787.0" width="504.9" height="63.5" rx="31.7" fill="#2C1A14"/><circle cx="229.3" cy="818.8" r="8.1" fill="#FFF7EE"/><text x="246.0" y="828.5" fill="#FFF7EE" font-family="Montserrat, Verdana, sans-serif" font-size="27.0" font-weight="600" letter-spacing="1.62">FOTO PENDIENTE · ENSALADA</text></g>
</svg>