<svg xmlns="http://www.w3.org/2000/svg" viewBox="0 0 1680 720" width="1680" height="720" role="img">
<defs>
<linearGradient id="g-local-mesas" x1="0" y1="0" x2="0.85" y2="1">
<stop offset="0" stop-color="#F2E6DC"/><stop offset="1" stop-color="#DCC3AE"/>
</linearGradient>
<radialGradient id="g-local-mesas-h" cx="0.28" cy="0.22" r="0.7">
<stop offset="0" stop-color="#FFFFFF" stop-opacity="0.85"/>
<stop offset="1" stop-color="#FFFFFF" stop-opacity="0"/>
</radialGradient>
</defs>
<rect width="1680" height="720" fill="url(#g-local-mesas)"/>
<circle cx="1344" cy="158" r="216" fill="#7A4F32" opacity="0.14"/>
<circle cx="302" cy="446" r="144" fill="#7A4F32" opacity="0.09"/>
<rect width="1680" height="720" fill="url(#g-local-mesas-h)"/>
<path d="M 652.8 561.6 a 187.2 161.0 0 0 1 374.4 0 l 0 74.9 a 187.2 74.9 0 0 1 -374.4 0 Z" fill="#7A4F32" opacity="0.30"/><path d="M 705.2 426.8 a 134.8 115.9 0 0 1 269.6 0 l 0 53.9 a 134.8 53.9 0 0 1 -269.6 0 Z" fill="#7A4F32" opacity="0.24"/><path d="M 753.9 325.7 a 86.1 74.1 0 0 1 172.2 0 l 0 34.4 a 86.1 34.4 0 0 1 -172.2 0 Z" fill="#7A4F32" opacity="0.18"/><path d="M 783.8 294.8 Q 840.0 188.1 896.2 294.8 Z" fill="#7A4F32" opacity="0.12"/>
<rect x="1230.5" y="110.6" width="14.0" height="4.8" rx="2.4" fill="#F2A33C" opacity="0.45" transform="rotate(95.2 1230.5 110.6)"/><rect x="1065.0" y="458.0" width="20.4" height="6.9" rx="3.5" fill="#7B3F6B" opacity="0.45" transform="rotate(90.8 1065.0 458.0)"/><rect x="1210.5" y="297.3" width="14.2" height="4.8" rx="2.4" fill="#5E9E6E" opacity="0.45" transform="rotate(149.2 1210.5 297.3)"/><rect x="116.9" y="297.2" width="20.7" height="7.0" rx="3.5" fill="#E14361" opacity="0.45" transform="rotate(113.0 116.9 297.2)"/><rect x="775.3" y="206.3" width="17.2" height="5.8" rx="2.9" fill="#E14361" opacity="0.45" transform="rotate(68.1 775.3 206.3)"/><rect x="431.1" y="95.2" width="21.2" height="7.2" rx="3.6" fill="#5E9E6E" opacity="0.45" transform="rotate(84.3 431.1 95.2)"/><rect x="118.8" y="607.6" width="14.0" height="4.8" rx="2.4" fill="#E14361" opacity="0.45" transform="rotate(16.3 118.8 607.6)"/><rect x="1047.3" y="560.4" width="15.0" height="5.1" rx="2.5" fill="#2E6BE6" opacity="0.45" transform="rotate(144.8 1047.3 560.4)"/><rect x="1445.6" y="227.5" width="18.9" height="6.4" rx="3.2" fill="#2E6BE6" opacity="0.45" transform="rotate(19.0 1445.6 227.5)"/><rect x="128.1" y="304.2" width="19.1" height="6.5" rx="3.2" fill="#E14361" opacity="0.45" transform="rotate(134.7 128.1 304.2)"/><rect x="726.1" y="521.6" width="18.8" height="6.4" rx="3.2" fill="#5E9E6E" opacity="0.45" transform="rotate(151.7 726.1 521.6)"/><rect x="799.8" y="155.4" width="19.8" height="6.7" rx="3.4" fill="#F2A33C" opacity="0.45" transform="rotate(26.0 799.8 155.4)"/><rect x="575.7" y="355.0" width="18.6" height="6.3" rx="3.2" fill="#5E9E6E" opacity="0.45" transform="rotate(97.3 575.7 355.0)"/><rect x="272.6" y="114.5" width="13.0" height="4.4" rx="2.2" fill="#E14361" opacity="0.45" transform="rotate(42.3 272.6 114.5)"/>
<g opacity="0.92"><rect x="638.0" y="629.6" width="403.9" height="50.8" rx="25.4" fill="#2C1A14"/><circle cx="663.4" cy="655.0" r="6.5" fill="#FFF7EE"/><text x="676.8" y="662.8" fill="#FFF7EE" font-family="Montserrat, Verdana, sans-serif" font-size="21.6" font-weight="600" letter-spacing="1.30">FOTO PENDIENTE · EL LOCAL</text></g>
</svg>