<svg xmlns="http://www.w3.org/2000/svg" viewBox="0 0 900 900" width="900" height="900" role="img">
<defs>
<linearGradient id="g-oblea" x1="0" y1="0" x2="0.85" y2="1">
<stop offset="0" stop-color="#F7E9DA"/><stop offset="1" stop-color="#E9D2B8"/>
</linearGradient>
<radialGradient id="g-oblea-h" cx="0.28" cy="0.22" r="0.7">
<stop offset="0" stop-color="#FFFFFF" stop-opacity="0.85"/>
<stop offset="1" stop-color="#FFFFFF" stop-opacity="0"/>
</radialGradient>
</defs>
<rect width="900" height="900" fill="url(#g-oblea)"/>
<circle cx="720" cy="198" r="270" fill="#C08B55" opacity="0.14"/>
<circle cx="162" cy="558" r="180" fill="#C08B55" opacity="0.09"/>
<rect width="900" height="900" fill="url(#g-oblea-h)"/>
<path d="M 216.0 702.0 a 234.0 201.2 0 0 1 468.0 0 l 0 93.6 a 234.0 93.6 0 0 1 -468.0 0 Z" fill="#C08B55" opacity="0.30"/><path d="M 281.5 533.5 a 168.5 144.9 0 0 1 337.0 0 l 0 67.4 a 168.5 67.4 0 0 1 -337.0 0 Z" fill="#C08B55" opacity="0.24"/><path d="M 342.4 407.2 a 107.6 92.6 0 0 1 215.3 0 l 0 43.1 a 107.6 43.1 0 0 1 -215.3 0 Z" fill="#C08B55" opacity="0.18"/><path d="M 379.8 368.6 Q 450.0 235.2 520.2 368.6 Z" fill="#C08B55" opacity="0.12"/>
<rect x="184.4" y="795.3" width="17.2" height="5.9" rx="2.9" fill="#E14361" opacity="0.45" transform="rotate(165.2 184.4 795.3)"/><rect x="422.2" y="279.5" width="25.3" height="8.6" rx="4.3" fill="#E14361" opacity="0.45" transform="rotate(143.0 422.2 279.5)"/><rect x="678.1" y="422.3" width="26.5" height="9.0" rx="4.5" fill="#2E6BE6" opacity="0.45" transform="rotate(72.3 678.1 422.3)"/><rect x="591.2" y="552.4" width="20.7" height="7.0" rx="3.5" fill="#F2A33C" opacity="0.45" transform="rotate(177.5 591.2 552.4)"/><rect x="168.0" y="231.4" width="26.2" height="8.9" rx="4.5" fill="#F2A33C" opacity="0.45" transform="rotate(158.0 168.0 231.4)"/><rect x="273.0" y="671.3" width="17.3" height="5.9" rx="2.9" fill="#2E6BE6" opacity="0.45" transform="rotate(115.0 273.0 671.3)"/><rect x="243.9" y="785.7" width="25.5" height="8.7" rx="4.3" fill="#F2A33C" opacity="0.45" transform="rotate(23.2 243.9 785.7)"/><rect x="539.6" y="590.3" width="20.9" height="7.1" rx="3.6" fill="#5E9E6E" opacity="0.45" transform="rotate(76.6 539.6 590.3)"/><rect x="619.8" y="661.3" width="24.2" height="8.2" rx="4.1" fill="#F2A33C" opacity="0.45" transform="rotate(102.0 619.8 661.3)"/><rect x="623.6" y="351.7" width="21.1" height="7.2" rx="3.6" fill="#7B3F6B" opacity="0.45" transform="rotate(104.1 623.6 351.7)"/><rect x="534.1" y="486.5" width="26.7" height="9.1" rx="4.5" fill="#F2A33C" opacity="0.45" transform="rotate(134.1 534.1 486.5)"/><rect x="218.0" y="806.4" width="18.9" height="6.4" rx="3.2" fill="#F2A33C" opacity="0.45" transform="rotate(40.7 218.0 806.4)"/><rect x="837.7" y="572.2" width="18.7" height="6.4" rx="3.2" fill="#7B3F6B" opacity="0.45" transform="rotate(168.7 837.7 572.2)"/><rect x="538.9" y="263.5" width="23.4" height="8.0" rx="4.0" fill="#7B3F6B" opacity="0.45" transform="rotate(20.5 538.9 263.5)"/>
<g opacity="0.92"><rect x="222.7" y="787.0" width="454.7" height="63.5" rx="31.7" fill="#2C1A14"/><circle cx="254.4" cy="818.8" r="8.1" fill="#FFF7EE"/><text x="271.1" y="828.5" fill="#FFF7EE" font-family="Montserrat, Verdana, sans-serif" font-size="27.0" font-weight="600" letter-spacing="1.62">FOTO PENDIENTE · OBLEA</text></g>
</svg>